<?xml version="1.0" encoding="UTF-8" standalone="no"?>
<svg
   width="137.83794"
   height="218.79588"
   viewBox="0 0 68.918968 109.39794"
   fill="none"
   version="1.1"
   id="svg10"
   sodipodi:docname="Standard Chartered Logo (2021, Logo only).svg"
   inkscape:version="1.2.2 (732a01da63, 2022-12-09)"
   xmlns:inkscape="http://www.inkscape.org/namespaces/inkscape"
   xmlns:sodipodi="http://sodipodi.sourceforge.net/DTD/sodipodi-0.dtd"
   xmlns="http://www.w3.org/2000/svg"
   xmlns:svg="http://www.w3.org/2000/svg">
  <defs
     id="defs14" />
  <sodipodi:namedview
     id="namedview12"
     pagecolor="#ffffff"
     bordercolor="#000000"
     borderopacity="0.25"
     inkscape:showpageshadow="2"
     inkscape:pageopacity="0.0"
     inkscape:pagecheckerboard="0"
     inkscape:deskcolor="#d1d1d1"
     showgrid="false"
     inkscape:zoom="2.2535714"
     inkscape:cx="279.33439"
     inkscape:cy="110.04754"
     inkscape:window-width="2560"
     inkscape:window-height="1369"
     inkscape:window-x="-8"
     inkscape:window-y="-8"
     inkscape:window-maximized="1"
     inkscape:current-layer="svg10" />
  <path
     d="M 53.507868,107.78883 7.6318678,77.923829 c 0,0 -5.753,-3.308 -7.07000001,-9.47 -1.84999999,-8.652 4.24800001,-16.07 4.24800001,-16.07 l 59.5390002,38.775 c 4.593,2.993 5.846,9.117001 2.894,13.736001 -3.033,4.745 -9.265,5.792 -13.737,2.894 z"
     fill="#38d200"
     id="path2" />
  <path
     d="m 10.054868,45.983829 c 0,0 -7.0270002,-4.243 -7.0270002,-14.057 0,-9.78 7.0240002,-13.971 7.0240002,-13.971 l 25.08,-16.4140004 a 9.927,9.927 0 0 1 10.82,16.6450004 l -21.138,13.764 36.015,23.456 c 0,0 6.483,3.714 7.76,9.984 1.783,8.747 -4.238,15.954 -4.238,15.954 z M 9.9218678,109.37183 c 2.3540002,0 4.0300002,-0.747 5.6650002,-1.807 l 12.243,-7.975001 -12.243,-7.973 c -1.65,-1.063 -3.382,-1.807 -5.6650002,-1.807 a 9.782,9.782 0 1 0 0,19.562001 z"
     fill="#0473ea"
     id="path4" />
  <path
     d="m 57.260868,22.170829 c -2.355,0 -4.031,0.747 -5.666,1.806 l -12.244,7.974 12.244,7.974 c 1.65,1.064 3.383,1.808 5.666,1.808 a 9.781,9.781 0 1 0 0,-19.562"
     fill="#38d200"
     id="path6" />
</svg>
